<svg xmlns="http://www.w3.org/2000/svg" viewBox="0 0 400 500" width="400" height="500">
  <rect width="400" height="500" fill="#ffffff"/>
  <g transform="translate(200, 200)">
    <circle cx="0" cy="0" r="80" fill="none" stroke="#2D5016" stroke-width="2.5"/>
    <line x1="0" y1="80" x2="0" y2="-55" stroke="#2D5016" stroke-width="2.5" stroke-linecap="round"/>

    <g transform="translate(0,-22) rotate(-40)">
      <path d="M 0,0 C 5,-3 12,-8 13,-16 C 14,-24 7,-30 0,-35 C -6,-28 -11,-20 -11,-14 C -10,-6 -4,-2 0,0 Z"
            fill="none" stroke="#7A9E7E" stroke-width="2"/>
      <path d="M 0,-1 Q 0.5,-17 0,-34" fill="none" stroke="#7A9E7E" stroke-width="0.7" opacity="0.4"/>
    </g>

    <g transform="translate(0,-42) rotate(32)">
      <path d="M 0,0 C 7,-4 16,-12 17,-22 C 18,-33 9,-42 0,-48 C -8,-40 -14,-28 -14,-20 C -13,-9 -6,-3 0,0 Z"
            fill="none" stroke="#7A9E7E" stroke-width="2"/>
      <path d="M 0,-1 Q 0.5,-24 0,-47" fill="none" stroke="#7A9E7E" stroke-width="0.7" opacity="0.4"/>
    </g>
  </g>

  <text x="200" y="340" text-anchor="middle"
        font-family="'Helvetica Neue', 'Arial', sans-serif"
        font-weight="300" font-size="22" letter-spacing="12" fill="#1a1a1a">
    ETERNATERRA
  </text>
</svg>
