<svg xmlns="http://www.w3.org/2000/svg" viewBox="0 0 200 200" width="200" height="200">
  <rect width="200" height="200" fill="#0a0a0a"/>
  <g transform="translate(100, 108)">
    <circle cx="0" cy="0" r="55" fill="none" stroke="#C2703E" stroke-width="2.5"/>
    <line x1="0" y1="55" x2="0" y2="-38" stroke="#C2703E" stroke-width="2.5" stroke-linecap="round"/>

    <g transform="translate(0,-15) rotate(-40)">
      <path d="M 0,0 C 3.5,-2 8.5,-5.5 9,-11 C 9.5,-16.5 5,-21 0,-24 C -4,-19 -7.5,-14 -7.5,-10 C -7,-4 -3,-1.5 0,0 Z"
            fill="none" stroke="#D4A24E" stroke-width="2"/>
      <path d="M 0,-0.5 Q 0.3,-12 0,-23.5" fill="none" stroke="#D4A24E" stroke-width="0.7" opacity="0.4"/>
    </g>

    <g transform="translate(0,-29) rotate(32)">
      <path d="M 0,0 C 5,-3 11,-8.5 12,-15.5 C 12.5,-23 6,-29 0,-33 C -5.5,-27.5 -10,-19.5 -10,-14 C -9,-6.5 -4,-2 0,0 Z"
            fill="none" stroke="#D4A24E" stroke-width="2"/>
      <path d="M 0,-0.5 Q 0.3,-16.5 0,-32.5" fill="none" stroke="#D4A24E" stroke-width="0.7" opacity="0.4"/>
    </g>
  </g>
</svg>
